# xmcd
#
# Track frame offsets:
#	150
#	15856
#	28974
#	42757
#	56101
#	67517
#	85490
#	98985
#	117709
#	129652
#	145861
#
# Disc length: 2172 seconds
#
# Revision: 2
# Processed by: cddbd v1.5.2PL0 Copyright (c) Steve Scherf et al.
# Submitted via: audiograbber 1.83.01
#
DISCID=94087a0b
DTITLE=The SteelDrivers - The SteelDrivers
DYEAR=2007
DGENRE=Bluegrass
TTITLE0=Blue Side Of The Mountain
TTITLE1=Drinkin' Dark Whiskey
TTITLE2=Midnight Train To Memphis
TTITLE3=Midnight Tears
TTITLE4=If You Can't Be Good, Be Gone
TTITLE5=If It Hadn't Been For Love
TTITLE6=Hear The Willow Cry
TTITLE7=Sticks That Made Thunder
TTITLE8=East Kentucky Home
TTITLE9=To Be with You Again
TTITLE10=Heaven Sent
EXTD=Year corrected.
EXTT0=
EXTT1=
EXTT2=
EXTT3=
EXTT4=
EXTT5=
EXTT6=
EXTT7=
EXTT8=
EXTT9=
EXTT10=
PLAYORDER=
